<svg width="80" height="80" viewBox="0 0 80 80" fill="none" xmlns="http://www.w3.org/2000/svg">
<path d="M20 12.1456C20 9.11984 22.4529 6.66699 25.4786 6.66699H51.1881C54.2138 6.66699 56.6667 9.11985 56.6667 12.1456V67.8551C56.6667 70.8808 54.2138 73.3337 51.1881 73.3337H25.4786C22.4529 73.3337 20 70.8808 20 67.8551V12.1456Z" fill="#C2E8FF"/>
<path d="M29.168 6.66699H47.4815V8.33186C47.4815 10.1708 45.9907 11.6616 44.1518 11.6616H32.4977C30.6587 11.6616 29.168 10.1708 29.168 8.33186V6.66699Z" fill="#0058CB"/>
<circle cx="38.2707" cy="69.0998" r="2.4973" fill="#0058CB"/>
<path d="M30.8281 49.1208C30.8281 44.9831 34.1824 41.6289 38.32 41.6289C42.4577 41.6289 45.8119 44.9831 45.8119 49.1208V51.6181H30.8281V49.1208Z" fill="#001945"/>
<path d="M38.212 40.2825C40.5987 40.2825 42.5334 38.3477 42.5334 35.9611C42.5334 33.5744 40.5987 31.6396 38.212 31.6396C35.8254 31.6396 33.8906 33.5744 33.8906 35.9611C33.8906 38.3477 35.8254 40.2825 38.212 40.2825Z" fill="#001945"/>
<path d="M40.5276 16.6562C39.3323 16.6562 38.3633 17.6252 38.3633 18.8206V32.8887C38.3633 34.084 39.3323 35.053 40.5276 35.053H42.7176L44.282 38.1817C44.8035 39.2248 46.292 39.2248 46.8135 38.1817L48.3779 35.053H64.5017C65.697 35.053 66.666 34.084 66.666 32.8887V18.8206C66.666 17.6253 65.697 16.6562 64.5017 16.6562H40.5276Z" fill="#569AFF"/>
<path d="M47.5618 25.8541C47.5618 27.0265 46.6114 27.9769 45.4391 27.9769C44.2668 27.9769 43.3164 27.0265 43.3164 25.8541C43.3164 24.6818 44.2668 23.7314 45.4391 23.7314C46.6114 23.7314 47.5618 24.6818 47.5618 25.8541Z" fill="#C2E8FF"/>
<path d="M54.6373 25.8541C54.6373 27.0265 53.6869 27.9769 52.5146 27.9769C51.3423 27.9769 50.3919 27.0265 50.3919 25.8541C50.3919 24.6818 51.3423 23.7314 52.5146 23.7314C53.6869 23.7314 54.6373 24.6818 54.6373 25.8541Z" fill="#C2E8FF"/>
<path d="M61.7128 25.8541C61.7128 27.0265 60.7624 27.9769 59.5901 27.9769C58.4177 27.9769 57.4674 27.0265 57.4674 25.8541C57.4674 24.6818 58.4177 23.7314 59.5901 23.7314C60.7624 23.7314 61.7128 24.6818 61.7128 25.8541Z" fill="#C2E8FF"/>
</svg>
